<svg width="654" height="181" viewBox="0 0 654 181" fill="none" xmlns="http://www.w3.org/2000/svg">
<path d="M605.089 72.7818C604.642 69.5279 603.972 55.8617 600.622 51.5232C588.786 42.4124 573.822 42.8462 573.822 42.8462C573.822 42.8462 558.859 42.4124 547.023 51.5232C543.896 55.8617 542.78 69.5279 542.556 72.7818L543.673 92.7388V93.1727C543.673 93.1727 547.916 111.177 549.703 114.214C551.713 118.119 557.743 125.494 562.656 128.314C564.666 129.399 570.026 129.616 573.822 129.616C578.066 129.616 583.202 129.182 584.989 128.314C589.902 125.928 595.709 118.336 597.942 114.214C599.729 111.177 603.972 93.1727 603.972 93.1727V92.7388L605.089 72.7818Z" fill="#B71C1C"/>
<path d="M597.942 94.908C596.825 96.2096 590.349 108.357 590.349 108.357C590.349 108.357 589.232 113.13 590.349 117.468C591.466 121.807 589.232 122.24 589.232 122.24L586.552 125.277L581.639 123.325H566.676L561.763 125.277L559.083 122.24C559.083 122.24 557.073 121.807 557.966 117.468C559.083 113.13 557.966 108.357 557.966 108.357C557.966 108.357 550.373 96.4265 549.256 94.908C548.14 93.6065 547.47 88.8342 547.47 88.8342L550.15 81.2418L549.48 58.2478C549.48 58.2478 551.489 55.2109 554.393 53.2586C556.849 51.5232 563.773 49.5709 563.773 49.5709L566.229 66.491C566.229 66.491 566.899 70.1787 566.899 70.3956C566.899 70.8294 569.356 71.4802 569.356 71.4802H578.512C578.512 71.4802 580.969 70.8294 580.969 70.3956C580.969 69.9617 581.639 66.491 581.639 66.491L584.096 49.5709C584.096 49.5709 591.019 51.3063 593.476 53.2586C595.485 55.2109 597.942 58.2478 597.942 58.2478L597.272 81.0249L599.952 88.6172C599.729 88.8342 599.059 93.6065 597.942 94.908Z" fill="#FFC107"/>
<path d="M596.602 90.5696L595.262 91.2203C592.582 92.7388 591.019 93.6065 589.902 94.0404C589.009 94.9081 587.669 94.9081 587.222 94.9081L580.299 95.3419V96.2096V95.3419C579.406 95.3419 578.289 95.125 577.619 94.0404C577.396 93.8234 576.949 93.1727 576.056 91.8711C575.609 91.4373 574.492 91.2203 573.599 91.2203C572.706 91.2203 571.813 91.2203 571.143 91.8711C570.249 93.1727 569.803 93.6065 569.579 94.0404C568.909 94.9081 567.793 95.3419 566.899 95.3419L559.753 94.9081C559.529 94.9081 558.189 94.9081 556.849 94.0404C555.956 93.6065 554.393 92.7388 551.713 91.2203L550.15 90.3526C549.703 90.1357 549.256 89.7019 549.256 89.0511C549.033 88.1834 549.703 87.3157 549.926 87.0988L552.829 84.9295C553.053 84.7126 554.169 84.2788 555.286 84.7126C555.733 84.9295 556.179 84.9295 556.849 85.1465C559.529 86.0142 564.666 87.9665 569.133 88.1834H577.396C582.086 87.9665 586.999 86.0142 589.679 85.1465C590.349 84.9295 590.796 84.7126 591.242 84.7126C592.136 84.2788 593.476 84.7126 593.699 84.9295L596.602 87.0988C596.825 87.3157 597.495 87.9665 597.272 89.0511C597.719 89.7019 597.272 90.1357 596.602 90.5696Z" fill="#E8B006"/>
<path d="M577.172 91.0034C577.172 91.0034 578.512 92.9557 578.959 93.3896C579.406 94.0403 580.299 94.0403 580.299 94.0403L587.222 93.6065C587.222 93.6065 588.562 93.6065 589.232 92.9557C590.349 92.5219 594.145 90.3526 595.932 89.268C596.602 88.8342 595.932 88.1834 595.932 88.1834L593.252 86.2311C593.252 86.2311 592.806 85.7972 592.136 86.2311C590.126 86.8818 583.872 89.4849 577.842 89.9188C576.056 90.1357 577.172 91.0034 577.172 91.0034ZM570.026 91.0034C570.026 91.0034 568.686 92.9557 568.239 93.3896C567.793 94.0403 566.899 94.0403 566.899 94.0403L559.976 93.6065C559.976 93.6065 558.636 93.6065 557.966 92.9557C556.849 92.5219 553.053 90.3526 551.266 89.268C550.596 88.8342 551.266 88.1834 551.266 88.1834L553.946 86.2311C553.946 86.2311 554.393 85.7972 555.063 86.2311C557.073 86.8818 563.326 89.4849 569.356 89.9188C571.143 90.1357 570.026 91.0034 570.026 91.0034Z" fill="#81D4FA"/>
<path d="M581.639 92.088H587.446L593.029 88.8342L591.466 86.448C589.232 87.3157 584.766 89.0511 580.076 89.7019L581.639 92.088ZM567.123 89.7019C562.433 89.0511 557.966 87.3157 555.733 86.448L554.169 88.8342L559.753 92.088H565.559L567.123 89.7019Z" fill="#E1F5FE"/>
<path d="M603.302 92.9557H605.089C605.759 92.9557 606.429 92.305 606.429 91.6542L607.099 74.3002C607.099 73.6495 606.429 72.9987 605.759 72.9987H605.089L603.302 92.9557ZM542.11 72.7818H541.44C540.77 72.7818 540.1 73.4325 540.1 74.0833L540.77 91.4373C540.77 92.088 541.44 92.7388 542.11 92.7388H543.896L542.11 72.7818Z" fill="#851414"/>
<path d="M105.089 72.7818C104.642 69.5279 103.972 55.8617 100.622 51.5232C88.7856 42.4124 73.8225 42.8462 73.8225 42.8462C73.8225 42.8462 58.8594 42.4124 47.0229 51.5232C43.8963 55.8617 42.7796 69.5279 42.5563 72.7818L43.673 92.7388V93.1727C43.673 93.1727 47.9162 111.177 49.7029 114.214C51.7128 118.119 57.7427 125.494 62.656 128.314C64.666 129.399 70.0259 129.616 73.8225 129.616C78.0657 129.616 83.2023 129.182 84.989 128.314C89.9022 125.928 95.7088 118.336 97.9421 114.214C99.7287 111.177 103.972 93.1727 103.972 93.1727V92.7388L105.089 72.7818Z" fill="#B71C1C"/>
<path d="M97.9421 94.908C96.8255 96.2096 90.3489 108.357 90.3489 108.357C90.3489 108.357 89.2322 113.13 90.3489 117.468C91.4655 121.807 89.2322 122.24 89.2322 122.24L86.5523 125.277L81.639 123.325H66.6759L61.7627 125.277L59.0827 122.24C59.0827 122.24 57.0728 121.807 57.9661 117.468C59.0827 113.13 57.9661 108.357 57.9661 108.357C57.9661 108.357 50.3729 96.4265 49.2562 94.908C48.1396 93.6065 47.4696 88.8342 47.4696 88.8342L50.1495 81.2418L49.4795 58.2478C49.4795 58.2478 51.4895 55.2109 54.3928 53.2586C56.8494 51.5232 63.7727 49.5709 63.7727 49.5709L66.2293 66.491C66.2293 66.491 66.8993 70.1787 66.8993 70.3956C66.8993 70.8294 69.3559 71.4802 69.3559 71.4802H78.5124C78.5124 71.4802 80.969 70.8294 80.969 70.3956C80.969 69.9617 81.639 66.491 81.639 66.491L84.0957 49.5709C84.0957 49.5709 91.0189 51.3063 93.4755 53.2586C95.4855 55.2109 97.9421 58.2478 97.9421 58.2478L97.2721 81.0249L99.9521 88.6172C99.7287 88.8342 99.0588 93.6065 97.9421 94.908Z" fill="#FFC107"/>
<path d="M96.6021 90.5696L95.2621 91.2203C92.5822 92.7388 91.0189 93.6065 89.9022 94.0404C89.0089 94.9081 87.6689 94.9081 87.2223 94.9081L80.299 95.3419V96.2096V95.3419C79.4057 95.3419 78.2891 95.125 77.6191 94.0404C77.3957 93.8234 76.9491 93.1727 76.0558 91.8711C75.6091 91.4373 74.4925 91.2203 73.5991 91.2203C72.7058 91.2203 71.8125 91.2203 71.1425 91.8711C70.2492 93.1727 69.8025 93.6065 69.5792 94.0404C68.9092 94.9081 67.7926 95.3419 66.8992 95.3419L59.7527 94.9081C59.5294 94.9081 58.1894 94.9081 56.8494 94.0404C55.9561 93.6065 54.3928 92.7388 51.7128 91.2203L50.1495 90.3526C49.7029 90.1357 49.2562 89.7019 49.2562 89.0511C49.0329 88.1834 49.7028 87.3157 49.9262 87.0988L52.8295 84.9295C53.0528 84.7126 54.1694 84.2788 55.2861 84.7126C55.7328 84.9295 56.1794 84.9295 56.8494 85.1465C59.5294 86.0142 64.6659 87.9665 69.1325 88.1834H77.3958C82.0857 87.9665 86.9989 86.0142 89.6789 85.1465C90.3489 84.9295 90.7955 84.7126 91.2422 84.7126C92.1355 84.2788 93.4755 84.7126 93.6988 84.9295L96.6021 87.0988C96.8254 87.3157 97.4954 87.9665 97.2721 89.0511C97.7188 89.7019 97.2721 90.1357 96.6021 90.5696Z" fill="#E8B006"/>
<path d="M77.1724 91.0034C77.1724 91.0034 78.5124 92.9557 78.9591 93.3896C79.4057 94.0403 80.2991 94.0403 80.2991 94.0403L87.2223 93.6065C87.2223 93.6065 88.5623 93.6065 89.2323 92.9557C90.3489 92.5219 94.1455 90.3526 95.9321 89.268C96.6021 88.8342 95.9321 88.1834 95.9321 88.1834L93.2522 86.2311C93.2522 86.2311 92.8055 85.7972 92.1355 86.2311C90.1256 86.8818 83.8723 89.4849 77.8424 89.9188C76.0558 90.1357 77.1724 91.0034 77.1724 91.0034ZM70.0259 91.0034C70.0259 91.0034 68.6859 92.9557 68.2393 93.3896C67.7926 94.0403 66.8993 94.0403 66.8993 94.0403L59.976 93.6065C59.976 93.6065 58.6361 93.6065 57.9661 92.9557C56.8494 92.5219 53.0528 90.3526 51.2662 89.268C50.5962 88.8342 51.2662 88.1834 51.2662 88.1834L53.9461 86.2311C53.9461 86.2311 54.3928 85.7972 55.0628 86.2311C57.0728 86.8818 63.326 89.4849 69.3559 89.9188C71.1425 90.1357 70.0259 91.0034 70.0259 91.0034Z" fill="#81D4FA"/>
<path d="M81.639 92.088H87.4456L93.0289 88.8342L91.4655 86.448C89.2322 87.3157 84.7656 89.0511 80.0757 89.7019L81.639 92.088ZM67.1226 89.7019C62.4327 89.0511 57.9661 87.3157 55.7328 86.448L54.1695 88.8342L59.7527 92.088H65.5593L67.1226 89.7019Z" fill="#E1F5FE"/>
<path d="M103.302 92.9557H105.089C105.759 92.9557 106.429 92.305 106.429 91.6542L107.099 74.3002C107.099 73.6495 106.429 72.9987 105.759 72.9987H105.089L103.302 92.9557ZM42.1096 72.7818H41.4396C40.7697 72.7818 40.0997 73.4325 40.0997 74.0833L40.7697 91.4373C40.7697 92.088 41.4396 92.7388 42.1096 92.7388H43.8963L42.1096 72.7818Z" fill="#851414"/>
<path d="M164.652 94H161.572L154.598 83.462V94H151.518V78.622H154.598L161.572 89.182V78.622H164.652V94ZM179.026 87.642C179.026 88.082 178.996 88.478 178.938 88.83H170.028C170.101 89.71 170.409 90.3993 170.952 90.898C171.494 91.3967 172.162 91.646 172.954 91.646C174.098 91.646 174.912 91.1547 175.396 90.172H178.718C178.366 91.3453 177.691 92.3133 176.694 93.076C175.696 93.824 174.472 94.198 173.02 94.198C171.846 94.198 170.79 93.9413 169.852 93.428C168.928 92.9 168.202 92.1593 167.674 91.206C167.16 90.2527 166.904 89.1527 166.904 87.906C166.904 86.6447 167.16 85.5373 167.674 84.584C168.187 83.6307 168.906 82.8973 169.83 82.384C170.754 81.8707 171.817 81.614 173.02 81.614C174.178 81.614 175.212 81.8633 176.122 82.362C177.046 82.8607 177.757 83.572 178.256 84.496C178.769 85.4053 179.026 86.454 179.026 87.642ZM175.836 86.762C175.821 85.97 175.535 85.3393 174.978 84.87C174.42 84.386 173.738 84.144 172.932 84.144C172.169 84.144 171.524 84.3787 170.996 84.848C170.482 85.3027 170.167 85.9407 170.05 86.762H175.836ZM188.028 81.636C189.48 81.636 190.653 82.098 191.548 83.022C192.443 83.9313 192.89 85.2073 192.89 86.85V94H189.81V87.268C189.81 86.3 189.568 85.5593 189.084 85.046C188.6 84.518 187.94 84.254 187.104 84.254C186.253 84.254 185.579 84.518 185.08 85.046C184.596 85.5593 184.354 86.3 184.354 87.268V94H181.274V81.812H184.354V83.33C184.765 82.802 185.285 82.3913 185.916 82.098C186.561 81.79 187.265 81.636 188.028 81.636ZM202.683 81.636C203.607 81.636 204.428 81.8413 205.147 82.252C205.865 82.648 206.423 83.242 206.819 84.034C207.229 84.8113 207.435 85.75 207.435 86.85V94H204.355V87.268C204.355 86.3 204.113 85.5593 203.629 85.046C203.145 84.518 202.485 84.254 201.649 84.254C200.798 84.254 200.123 84.518 199.625 85.046C199.141 85.5593 198.899 86.3 198.899 87.268V94H195.819V77.72H198.899V83.33C199.295 82.802 199.823 82.3913 200.483 82.098C201.143 81.79 201.876 81.636 202.683 81.636ZM221.87 81.812V94H218.768V92.46C218.372 92.988 217.851 93.406 217.206 93.714C216.575 94.0073 215.886 94.154 215.138 94.154C214.184 94.154 213.341 93.956 212.608 93.56C211.874 93.1493 211.295 92.5553 210.87 91.778C210.459 90.986 210.254 90.0473 210.254 88.962V81.812H213.334V88.522C213.334 89.49 213.576 90.238 214.06 90.766C214.544 91.2793 215.204 91.536 216.04 91.536C216.89 91.536 217.558 91.2793 218.042 90.766C218.526 90.238 218.768 89.49 218.768 88.522V81.812H221.87ZM240.045 81.636C241.541 81.636 242.743 82.098 243.653 83.022C244.577 83.9313 245.039 85.2073 245.039 86.85V94H241.959V87.268C241.959 86.3147 241.717 85.5887 241.233 85.09C240.749 84.5767 240.089 84.32 239.253 84.32C238.417 84.32 237.749 84.5767 237.251 85.09C236.767 85.5887 236.525 86.3147 236.525 87.268V94H233.445V87.268C233.445 86.3147 233.203 85.5887 232.719 85.09C232.235 84.5767 231.575 84.32 230.739 84.32C229.888 84.32 229.213 84.5767 228.715 85.09C228.231 85.5887 227.989 86.3147 227.989 87.268V94H224.909V81.812H227.989V83.286C228.385 82.7727 228.891 82.3693 229.507 82.076C230.137 81.7827 230.827 81.636 231.575 81.636C232.528 81.636 233.379 81.8413 234.127 82.252C234.875 82.648 235.454 83.22 235.865 83.968C236.261 83.264 236.833 82.6993 237.581 82.274C238.343 81.8487 239.165 81.636 240.045 81.636ZM260.068 81.636C260.992 81.636 261.813 81.8413 262.532 82.252C263.25 82.648 263.808 83.242 264.204 84.034C264.614 84.8113 264.82 85.75 264.82 86.85V94H261.74V87.268C261.74 86.3 261.498 85.5593 261.014 85.046C260.53 84.518 259.87 84.254 259.034 84.254C258.183 84.254 257.508 84.518 257.01 85.046C256.526 85.5593 256.284 86.3 256.284 87.268V94H253.204V77.72H256.284V83.33C256.68 82.802 257.208 82.3913 257.868 82.098C258.528 81.79 259.261 81.636 260.068 81.636ZM279.078 87.642C279.078 88.082 279.049 88.478 278.99 88.83H270.08C270.154 89.71 270.462 90.3993 271.004 90.898C271.547 91.3967 272.214 91.646 273.006 91.646C274.15 91.646 274.964 91.1547 275.448 90.172H278.77C278.418 91.3453 277.744 92.3133 276.746 93.076C275.749 93.824 274.524 94.198 273.072 94.198C271.899 94.198 270.843 93.9413 269.904 93.428C268.98 92.9 268.254 92.1593 267.726 91.206C267.213 90.2527 266.956 89.1527 266.956 87.906C266.956 86.6447 267.213 85.5373 267.726 84.584C268.24 83.6307 268.958 82.8973 269.882 82.384C270.806 81.8707 271.87 81.614 273.072 81.614C274.231 81.614 275.265 81.8633 276.174 82.362C277.098 82.8607 277.81 83.572 278.308 84.496C278.822 85.4053 279.078 86.454 279.078 87.642ZM275.888 86.762C275.874 85.97 275.588 85.3393 275.03 84.87C274.473 84.386 273.791 84.144 272.984 84.144C272.222 84.144 271.576 84.3787 271.048 84.848C270.535 85.3027 270.22 85.9407 270.102 86.762H275.888ZM284.407 83.704C284.803 83.0587 285.316 82.5527 285.947 82.186C286.592 81.8193 287.325 81.636 288.147 81.636V84.87H287.333C286.365 84.87 285.631 85.0973 285.133 85.552C284.649 86.0067 284.407 86.7987 284.407 87.928V94H281.327V81.812H284.407V83.704ZM295.633 94.198C294.46 94.198 293.404 93.9413 292.465 93.428C291.526 92.9 290.786 92.1593 290.243 91.206C289.715 90.2527 289.451 89.1527 289.451 87.906C289.451 86.6593 289.722 85.5593 290.265 84.606C290.822 83.6527 291.578 82.9193 292.531 82.406C293.484 81.878 294.548 81.614 295.721 81.614C296.894 81.614 297.958 81.878 298.911 82.406C299.864 82.9193 300.612 83.6527 301.155 84.606C301.712 85.5593 301.991 86.6593 301.991 87.906C301.991 89.1527 301.705 90.2527 301.133 91.206C300.576 92.1593 299.813 92.9 298.845 93.428C297.892 93.9413 296.821 94.198 295.633 94.198ZM295.633 91.514C296.19 91.514 296.711 91.382 297.195 91.118C297.694 90.8393 298.09 90.4287 298.383 89.886C298.676 89.3433 298.823 88.6833 298.823 87.906C298.823 86.7473 298.515 85.86 297.899 85.244C297.298 84.6133 296.557 84.298 295.677 84.298C294.797 84.298 294.056 84.6133 293.455 85.244C292.868 85.86 292.575 86.7473 292.575 87.906C292.575 89.0647 292.861 89.9593 293.433 90.59C294.02 91.206 294.753 91.514 295.633 91.514ZM298.251 78.49L293.191 80.8V78.6L298.251 75.982V78.49ZM305.812 80.36C305.27 80.36 304.815 80.1913 304.448 79.854C304.096 79.502 303.92 79.0693 303.92 78.556C303.92 78.0427 304.096 77.6173 304.448 77.28C304.815 76.928 305.27 76.752 305.812 76.752C306.355 76.752 306.802 76.928 307.154 77.28C307.521 77.6173 307.704 78.0427 307.704 78.556C307.704 79.0693 307.521 79.502 307.154 79.854C306.802 80.1913 306.355 80.36 305.812 80.36ZM307.33 81.812V94H304.25V81.812H307.33ZM318.696 83.572C319.092 83.0147 319.634 82.5527 320.324 82.186C321.028 81.8047 321.827 81.614 322.722 81.614C323.763 81.614 324.702 81.8707 325.538 82.384C326.388 82.8973 327.056 83.6307 327.54 84.584C328.038 85.5227 328.288 86.6153 328.288 87.862C328.288 89.1087 328.038 90.216 327.54 91.184C327.056 92.1373 326.388 92.878 325.538 93.406C324.702 93.934 323.763 94.198 322.722 94.198C321.827 94.198 321.035 94.0147 320.346 93.648C319.671 93.2813 319.121 92.8193 318.696 92.262V99.808H315.616V81.812H318.696V83.572ZM325.142 87.862C325.142 87.1287 324.988 86.498 324.68 85.97C324.386 85.4273 323.99 85.0167 323.492 84.738C323.008 84.4593 322.48 84.32 321.908 84.32C321.35 84.32 320.822 84.4667 320.324 84.76C319.84 85.0387 319.444 85.4493 319.136 85.992C318.842 86.5347 318.696 87.1727 318.696 87.906C318.696 88.6393 318.842 89.2773 319.136 89.82C319.444 90.3627 319.84 90.7807 320.324 91.074C320.822 91.3527 321.35 91.492 321.908 91.492C322.48 91.492 323.008 91.3453 323.492 91.052C323.99 90.7587 324.386 90.3407 324.68 89.798C324.988 89.2553 325.142 88.61 325.142 87.862ZM329.734 87.862C329.734 86.63 329.976 85.5373 330.46 84.584C330.958 83.6307 331.626 82.8973 332.462 82.384C333.312 81.8707 334.258 81.614 335.3 81.614C336.209 81.614 337.001 81.7973 337.676 82.164C338.365 82.5307 338.915 82.9927 339.326 83.55V81.812H342.428V94H339.326V92.218C338.93 92.79 338.38 93.2667 337.676 93.648C336.986 94.0147 336.187 94.198 335.278 94.198C334.251 94.198 333.312 93.934 332.462 93.406C331.626 92.878 330.958 92.1373 330.46 91.184C329.976 90.216 329.734 89.1087 329.734 87.862ZM339.326 87.906C339.326 87.158 339.179 86.52 338.886 85.992C338.592 85.4493 338.196 85.0387 337.698 84.76C337.199 84.4667 336.664 84.32 336.092 84.32C335.52 84.32 334.992 84.4593 334.508 84.738C334.024 85.0167 333.628 85.4273 333.32 85.97C333.026 86.498 332.88 87.1287 332.88 87.862C332.88 88.5953 333.026 89.2407 333.32 89.798C333.628 90.3407 334.024 90.7587 334.508 91.052C335.006 91.3453 335.534 91.492 336.092 91.492C336.664 91.492 337.199 91.3527 337.698 91.074C338.196 90.7807 338.592 90.37 338.886 89.842C339.179 89.2993 339.326 88.654 339.326 87.906ZM348.516 83.704C348.912 83.0587 349.425 82.5527 350.056 82.186C350.701 81.8193 351.435 81.636 352.256 81.636V84.87H351.442C350.474 84.87 349.741 85.0973 349.242 85.552C348.758 86.0067 348.516 86.7987 348.516 87.928V94H345.436V81.812H348.516V83.704ZM353.538 87.862C353.538 86.63 353.78 85.5373 354.264 84.584C354.763 83.6307 355.431 82.8973 356.267 82.384C357.117 81.8707 358.063 81.614 359.105 81.614C360.014 81.614 360.806 81.7973 361.481 82.164C362.17 82.5307 362.72 82.9927 363.131 83.55V81.812H366.233V94H363.131V92.218C362.735 92.79 362.185 93.2667 361.481 93.648C360.791 94.0147 359.992 94.198 359.083 94.198C358.056 94.198 357.117 93.934 356.267 93.406C355.431 92.878 354.763 92.1373 354.264 91.184C353.78 90.216 353.538 89.1087 353.538 87.862ZM363.131 87.906C363.131 87.158 362.984 86.52 362.691 85.992C362.397 85.4493 362.001 85.0387 361.503 84.76C361.004 84.4667 360.469 84.32 359.897 84.32C359.325 84.32 358.797 84.4593 358.312 84.738C357.829 85.0167 357.433 85.4273 357.125 85.97C356.831 86.498 356.685 87.1287 356.685 87.862C356.685 88.5953 356.831 89.2407 357.125 89.798C357.433 90.3407 357.829 90.7587 358.312 91.052C358.811 91.3453 359.339 91.492 359.897 91.492C360.469 91.492 361.004 91.3527 361.503 91.074C362.001 90.7807 362.397 90.37 362.691 89.842C362.984 89.2993 363.131 88.654 363.131 87.906ZM379.147 94.198C378.15 94.198 377.255 94.022 376.463 93.67C375.671 93.3033 375.04 92.812 374.571 92.196C374.116 91.58 373.867 90.898 373.823 90.15H376.925C376.984 90.6193 377.211 91.008 377.607 91.316C378.018 91.624 378.524 91.778 379.125 91.778C379.712 91.778 380.166 91.6607 380.489 91.426C380.826 91.1913 380.995 90.8907 380.995 90.524C380.995 90.128 380.79 89.8347 380.379 89.644C379.983 89.4387 379.345 89.2187 378.465 88.984C377.556 88.764 376.808 88.5367 376.221 88.302C375.649 88.0673 375.15 87.708 374.725 87.224C374.314 86.74 374.109 86.0873 374.109 85.266C374.109 84.5913 374.3 83.9753 374.681 83.418C375.077 82.8607 375.634 82.4207 376.353 82.098C377.086 81.7753 377.944 81.614 378.927 81.614C380.379 81.614 381.538 81.9807 382.403 82.714C383.268 83.4327 383.745 84.408 383.833 85.64H380.885C380.841 85.156 380.636 84.7747 380.269 84.496C379.917 84.2027 379.44 84.056 378.839 84.056C378.282 84.056 377.849 84.1587 377.541 84.364C377.248 84.5693 377.101 84.8553 377.101 85.222C377.101 85.6327 377.306 85.948 377.717 86.168C378.128 86.3733 378.766 86.586 379.631 86.806C380.511 87.026 381.237 87.2533 381.809 87.488C382.381 87.7227 382.872 88.0893 383.283 88.588C383.708 89.072 383.928 89.7173 383.943 90.524C383.943 91.228 383.745 91.8587 383.349 92.416C382.968 92.9733 382.41 93.4133 381.677 93.736C380.958 94.044 380.115 94.198 379.147 94.198ZM397.801 87.642C397.801 88.082 397.772 88.478 397.713 88.83H388.803C388.876 89.71 389.184 90.3993 389.727 90.898C390.27 91.3967 390.937 91.646 391.729 91.646C392.873 91.646 393.687 91.1547 394.171 90.172H397.493C397.141 91.3453 396.466 92.3133 395.469 93.076C394.472 93.824 393.247 94.198 391.795 94.198C390.622 94.198 389.566 93.9413 388.627 93.428C387.703 92.9 386.977 92.1593 386.449 91.206C385.936 90.2527 385.679 89.1527 385.679 87.906C385.679 86.6447 385.936 85.5373 386.449 84.584C386.962 83.6307 387.681 82.8973 388.605 82.384C389.529 81.8707 390.592 81.614 391.795 81.614C392.954 81.614 393.988 81.8633 394.897 82.362C395.821 82.8607 396.532 83.572 397.031 84.496C397.544 85.4053 397.801 86.454 397.801 87.642ZM394.611 86.762C394.596 85.97 394.31 85.3393 393.753 84.87C393.196 84.386 392.514 84.144 391.707 84.144C390.944 84.144 390.299 84.3787 389.771 84.848C389.258 85.3027 388.942 85.9407 388.825 86.762H394.611ZM403.129 83.704C403.525 83.0587 404.039 82.5527 404.669 82.186C405.315 81.8193 406.048 81.636 406.869 81.636V84.87H406.055C405.087 84.87 404.354 85.0973 403.855 85.552C403.371 86.0067 403.129 86.7987 403.129 87.928V94H400.049V81.812H403.129V83.704ZM425.516 87.642C425.516 88.082 425.487 88.478 425.428 88.83H416.518C416.591 89.71 416.899 90.3993 417.442 90.898C417.985 91.3967 418.652 91.646 419.444 91.646C420.588 91.646 421.402 91.1547 421.886 90.172H425.208C424.856 91.3453 424.181 92.3133 423.184 93.076C422.187 93.824 420.962 94.198 419.51 94.198C418.337 94.198 417.281 93.9413 416.342 93.428C415.418 92.9 414.692 92.1593 414.164 91.206C413.651 90.2527 413.394 89.1527 413.394 87.906C413.394 86.6447 413.651 85.5373 414.164 84.584C414.677 83.6307 415.396 82.8973 416.32 82.384C417.244 81.8707 418.307 81.614 419.51 81.614C420.669 81.614 421.703 81.8633 422.612 82.362C423.536 82.8607 424.247 83.572 424.746 84.496C425.259 85.4053 425.516 86.454 425.516 87.642ZM422.326 86.762C422.311 85.97 422.025 85.3393 421.468 84.87C420.911 84.386 420.229 84.144 419.422 84.144C418.659 84.144 418.014 84.3787 417.486 84.848C416.973 85.3027 416.657 85.9407 416.54 86.762H422.326ZM434.496 94L431.988 90.216L429.766 94H426.466L430.448 87.884L426.422 81.812H429.898L432.384 85.574L434.628 81.812H437.928L433.924 87.884L437.972 94H434.496ZM441.207 80.36C440.664 80.36 440.21 80.1913 439.843 79.854C439.491 79.502 439.315 79.0693 439.315 78.556C439.315 78.0427 439.491 77.6173 439.843 77.28C440.21 76.928 440.664 76.752 441.207 76.752C441.75 76.752 442.197 76.928 442.549 77.28C442.916 77.6173 443.099 78.0427 443.099 78.556C443.099 79.0693 442.916 79.502 442.549 79.854C442.197 80.1913 441.75 80.36 441.207 80.36ZM442.725 81.812V94H439.645V81.812H442.725ZM448.848 83.594C449.244 83.0073 449.787 82.5307 450.476 82.164C451.18 81.7973 451.979 81.614 452.874 81.614C453.915 81.614 454.854 81.8707 455.69 82.384C456.541 82.8973 457.208 83.6307 457.692 84.584C458.191 85.5227 458.44 86.6153 458.44 87.862C458.44 89.1087 458.191 90.216 457.692 91.184C457.208 92.1373 456.541 92.878 455.69 93.406C454.854 93.934 453.915 94.198 452.874 94.198C451.965 94.198 451.165 94.022 450.476 93.67C449.801 93.3033 449.259 92.834 448.848 92.262V94H445.768V77.72H448.848V83.594ZM455.294 87.862C455.294 87.1287 455.14 86.498 454.832 85.97C454.539 85.4273 454.143 85.0167 453.644 84.738C453.16 84.4593 452.632 84.32 452.06 84.32C451.503 84.32 450.975 84.4667 450.476 84.76C449.992 85.0387 449.596 85.4493 449.288 85.992C448.995 86.5347 448.848 87.1727 448.848 87.906C448.848 88.6393 448.995 89.2773 449.288 89.82C449.596 90.3627 449.992 90.7807 450.476 91.074C450.975 91.3527 451.503 91.492 452.06 91.492C452.632 91.492 453.16 91.3453 453.644 91.052C454.143 90.7587 454.539 90.3407 454.832 89.798C455.14 89.2553 455.294 88.61 455.294 87.862ZM462.24 80.36C461.697 80.36 461.243 80.1913 460.876 79.854C460.524 79.502 460.348 79.0693 460.348 78.556C460.348 78.0427 460.524 77.6173 460.876 77.28C461.243 76.928 461.697 76.752 462.24 76.752C462.783 76.752 463.23 76.928 463.582 77.28C463.949 77.6173 464.132 78.0427 464.132 78.556C464.132 79.0693 463.949 79.502 463.582 79.854C463.23 80.1913 462.783 80.36 462.24 80.36ZM463.758 81.812V94H460.678V81.812H463.758ZM466.009 87.862C466.009 86.63 466.251 85.5373 466.735 84.584C467.234 83.6307 467.909 82.8973 468.759 82.384C469.61 81.8707 470.556 81.614 471.597 81.614C472.389 81.614 473.145 81.79 473.863 82.142C474.582 82.4793 475.154 82.934 475.579 83.506V77.72H478.703V94H475.579V92.196C475.198 92.7973 474.663 93.2813 473.973 93.648C473.284 94.0147 472.485 94.198 471.575 94.198C470.549 94.198 469.61 93.934 468.759 93.406C467.909 92.878 467.234 92.1373 466.735 91.184C466.251 90.216 466.009 89.1087 466.009 87.862ZM475.601 87.906C475.601 87.158 475.455 86.52 475.161 85.992C474.868 85.4493 474.472 85.0387 473.973 84.76C473.475 84.4667 472.939 84.32 472.367 84.32C471.795 84.32 471.267 84.4593 470.783 84.738C470.299 85.0167 469.903 85.4273 469.595 85.97C469.302 86.498 469.155 87.1287 469.155 87.862C469.155 88.5953 469.302 89.2407 469.595 89.798C469.903 90.3407 470.299 90.7587 470.783 91.052C471.282 91.3453 471.81 91.492 472.367 91.492C472.939 91.492 473.475 91.3527 473.973 91.074C474.472 90.7807 474.868 90.37 475.161 89.842C475.455 89.2993 475.601 88.654 475.601 87.906ZM487.123 94.198C485.95 94.198 484.894 93.9413 483.955 93.428C483.017 92.9 482.276 92.1593 481.733 91.206C481.205 90.2527 480.941 89.1527 480.941 87.906C480.941 86.6593 481.213 85.5593 481.755 84.606C482.313 83.6527 483.068 82.9193 484.021 82.406C484.975 81.878 486.038 81.614 487.211 81.614C488.385 81.614 489.448 81.878 490.401 82.406C491.355 82.9193 492.103 83.6527 492.645 84.606C493.203 85.5593 493.481 86.6593 493.481 87.906C493.481 89.1527 493.195 90.2527 492.623 91.206C492.066 92.1593 491.303 92.9 490.335 93.428C489.382 93.9413 488.311 94.198 487.123 94.198ZM487.123 91.514C487.681 91.514 488.201 91.382 488.685 91.118C489.184 90.8393 489.58 90.4287 489.873 89.886C490.167 89.3433 490.313 88.6833 490.313 87.906C490.313 86.7473 490.005 85.86 489.389 85.244C488.788 84.6133 488.047 84.298 487.167 84.298C486.287 84.298 485.547 84.6133 484.945 85.244C484.359 85.86 484.065 86.7473 484.065 87.906C484.065 89.0647 484.351 89.9593 484.923 90.59C485.51 91.206 486.243 91.514 487.123 91.514Z" fill="black" fill-opacity="0.28"/>
</svg>
